<svg xmlns="http://www.w3.org/2000/svg" xmlns:xlink="http://www.w3.org/1999/xlink" version="1.1" x="0px" y="0px" viewBox="0 0 100 100" enable-background="new 0 0 100 100" xml:space="preserve"><g><polygon fill-rule="evenodd" clip-rule="evenodd" points="35.714,61.504 28.933,73.248 42.499,73.248  "></polygon><path fill-rule="evenodd" clip-rule="evenodd" d="M44.913,0l0.108,0.118c-0.138,0.335-0.289,0.657-0.473,0.966l-0.138,0.007   c-1.208,2.062-2.798,3.875-4.69,5.346l0.243-0.02c-1.977,1.268-4.085,2.292-6.299,3.061L33.658,9.53   c-2.059,0.742-4.223,1.123-6.417,1.123c-0.121,0-0.24,0-0.364,0l0.013,0.171c-2.509,0.591-4.381,2.653-4.69,5.169l-0.042-0.013   l-0.483,5.326l-0.042-0.006c-0.135,0.598-0.201,1.208-0.201,1.825c0,1.912,0.657,3.777,1.866,5.294l-0.059,0.047   c0.985,1.175,2.184,2.154,3.537,2.883l-0.016,0.132l1.208-4.723l3.271,0.604l0.607,15.861l-0.013,0.021   c1.455,6.922,4.782,13.313,9.599,18.489l-0.026,0.131L78.568,100L66.709,57.143l-0.02,0.007c0.014-0.368,0.02-0.729,0.02-1.097   c0-3.258-0.453-6.503-1.353-9.643l-0.115,0.25c-2.689-8.039-7.234-15.323-13.271-21.261l0.138-0.093   c-0.381-4.196-2.299-8.111-5.379-11.008L46.67,14.2c1.307-1.904,2.003-4.151,2.003-6.45c0-2.719-0.972-5.346-2.749-7.422   L45.291,0.25C45.327,0.105,45.422,0,45.521,0c0.102,0,0.197,0.105,0.227,0.25L44.913,0z"></path></g></svg>